<svg width="192" height="47" viewBox="0 0 192 47" fill="none" xmlns="http://www.w3.org/2000/svg">
<path d="M74.4342 1.132V1.552C73.9722 1.566 73.6222 1.622 73.3842 1.72C73.1602 1.804 73.0062 1.972 72.9222 2.224C72.8522 2.462 72.8172 2.84 72.8172 3.358V13.774C72.8172 14.278 72.8522 14.656 72.9222 14.908C73.0062 15.16 73.1602 15.328 73.3842 15.412C73.6222 15.496 73.9722 15.552 74.4342 15.58V16C74.0982 15.972 73.6642 15.958 73.1322 15.958C72.6002 15.944 72.0262 15.937 71.4102 15.937C70.7802 15.937 70.1292 15.951 69.4572 15.979C68.7852 15.993 68.1342 16 67.5042 16C67.1402 16 66.7412 15.993 66.3072 15.979C65.8872 15.965 65.4672 15.958 65.0472 15.958C64.6272 15.944 64.2352 15.937 63.8712 15.937C63.3112 15.937 62.6952 15.951 62.0232 15.979C61.3652 15.993 60.7422 16 60.1542 16C59.4962 16 58.8382 15.993 58.1802 15.979C57.5222 15.951 56.8712 15.937 56.2272 15.937C55.6112 15.937 55.0372 15.944 54.5052 15.958C53.9732 15.958 53.5392 15.972 53.2032 16V15.58C53.6652 15.552 54.0082 15.496 54.2322 15.412C54.4702 15.328 54.6242 15.16 54.6942 14.908C54.7782 14.656 54.8202 14.278 54.8202 13.774V3.358C54.8202 2.84 54.7782 2.462 54.6942 2.224C54.6242 1.972 54.4702 1.804 54.2322 1.72C54.0082 1.622 53.6652 1.566 53.2032 1.552V1.132C53.5532 1.146 54.0012 1.16 54.5472 1.174C55.0932 1.188 55.6812 1.195 56.3112 1.195C56.8292 1.195 57.3402 1.188 57.8442 1.174C58.3482 1.16 58.7682 1.146 59.1042 1.132V1.552C58.7122 1.566 58.4182 1.622 58.2222 1.72C58.0262 1.804 57.8862 1.972 57.8022 2.224C57.7322 2.462 57.6972 2.84 57.6972 3.358V13.774C57.6972 14.278 57.7392 14.663 57.8232 14.929C57.9072 15.181 58.0682 15.356 58.3062 15.454C58.5582 15.538 58.9222 15.58 59.3982 15.58H60.6792C61.1552 15.58 61.5122 15.538 61.7502 15.454C62.0022 15.356 62.1702 15.181 62.2542 14.929C62.3382 14.663 62.3802 14.278 62.3802 13.774V3.358C62.3802 2.84 62.3452 2.462 62.2752 2.224C62.2052 1.972 62.0722 1.804 61.8762 1.72C61.6802 1.622 61.3792 1.566 60.9732 1.552V1.132C61.3092 1.146 61.7292 1.16 62.2332 1.174C62.7512 1.188 63.2622 1.195 63.7662 1.195C64.3542 1.195 64.9072 1.188 65.4252 1.174C65.9432 1.16 66.3562 1.146 66.6642 1.132V1.552C66.2722 1.566 65.9712 1.622 65.7612 1.72C65.5512 1.804 65.4112 1.972 65.3412 2.224C65.2852 2.462 65.2572 2.84 65.2572 3.358V13.774C65.2572 14.278 65.2992 14.663 65.3832 14.929C65.4812 15.181 65.6562 15.349 65.9082 15.433C66.1602 15.517 66.5102 15.566 66.9582 15.58H68.2392C68.7152 15.58 69.0722 15.538 69.3102 15.454C69.5622 15.356 69.7302 15.181 69.8142 14.929C69.8982 14.663 69.9402 14.278 69.9402 13.774V3.358C69.9402 2.84 69.9052 2.462 69.8352 2.224C69.7652 1.972 69.6322 1.804 69.4362 1.72C69.2402 1.622 68.9392 1.566 68.5332 1.552V1.132C68.8692 1.146 69.2892 1.16 69.7932 1.174C70.3112 1.188 70.8222 1.195 71.3262 1.195C71.9562 1.195 72.5442 1.188 73.0902 1.174C73.6502 1.16 74.0982 1.146 74.4342 1.132ZM83.3173 1.132V1.552C82.8693 1.566 82.5263 1.622 82.2883 1.72C82.0643 1.804 81.9103 1.972 81.8263 2.224C81.7423 2.462 81.7003 2.84 81.7003 3.358V13.774C81.7003 14.278 81.7423 14.656 81.8263 14.908C81.9103 15.16 82.0643 15.328 82.2883 15.412C82.5263 15.496 82.8693 15.552 83.3173 15.58V16C82.9673 15.972 82.5193 15.958 81.9733 15.958C81.4273 15.944 80.8743 15.937 80.3143 15.937C79.6843 15.937 79.0963 15.944 78.5503 15.958C78.0043 15.958 77.5563 15.972 77.2063 16V15.58C77.6683 15.552 78.0113 15.496 78.2353 15.412C78.4733 15.328 78.6273 15.16 78.6973 14.908C78.7813 14.656 78.8233 14.278 78.8233 13.774V3.358C78.8233 2.84 78.7813 2.462 78.6973 2.224C78.6273 1.972 78.4733 1.804 78.2353 1.72C78.0113 1.622 77.6683 1.566 77.2063 1.552V1.132C77.5563 1.146 78.0043 1.16 78.5503 1.174C79.0963 1.188 79.6843 1.195 80.3143 1.195C80.8743 1.195 81.4273 1.188 81.9733 1.174C82.5193 1.16 82.9673 1.146 83.3173 1.132ZM82.6243 8.083C83.6183 8.083 84.5003 8.16 85.2703 8.314C86.0403 8.468 86.6703 8.762 87.1603 9.196C87.6643 9.616 88.0003 10.232 88.1683 11.044L88.7773 13.795C88.9173 14.383 89.0503 14.796 89.1763 15.034C89.3163 15.272 89.5263 15.384 89.8063 15.37C90.0023 15.37 90.1703 15.321 90.3103 15.223C90.4503 15.111 90.5903 14.964 90.7303 14.782L91.0243 15.034C90.7023 15.44 90.3383 15.755 89.9323 15.979C89.5403 16.189 89.0363 16.294 88.4203 16.294C87.7483 16.294 87.1813 16.147 86.7193 15.853C86.2713 15.545 85.9563 14.936 85.7743 14.026L85.2073 11.023C85.0953 10.449 84.9483 9.973 84.7663 9.595C84.5843 9.217 84.3113 8.937 83.9473 8.755C83.5833 8.559 83.0583 8.461 82.3723 8.461H81.2173V8.083H82.6243ZM81.6583 8.461V8.083C82.2603 8.055 82.7853 7.901 83.2333 7.621C83.6953 7.341 84.1643 6.928 84.6403 6.382L86.1313 4.513C86.6353 3.897 86.9433 3.372 87.0553 2.938C87.1813 2.504 87.1183 2.168 86.8663 1.93C86.6283 1.692 86.2293 1.566 85.6693 1.552V1.132C85.9913 1.146 86.2993 1.16 86.5933 1.174C86.9013 1.174 87.2163 1.181 87.5383 1.195C87.8603 1.195 88.1963 1.195 88.5463 1.195C88.9383 1.195 89.2953 1.188 89.6173 1.174C89.9393 1.16 90.2193 1.146 90.4573 1.132V1.552C90.0093 1.636 89.5473 1.818 89.0713 2.098C88.5953 2.364 88.1053 2.791 87.6013 3.379L83.4013 8.461H81.6583ZM100.296 0.837999C101.724 0.837999 102.977 1.139 104.055 1.741C105.133 2.343 105.966 3.211 106.554 4.345C107.156 5.465 107.457 6.83 107.457 8.44C107.457 10.008 107.149 11.38 106.533 12.556C105.931 13.732 105.084 14.649 103.992 15.307C102.914 15.965 101.675 16.294 100.275 16.294C98.8468 16.294 97.5938 15.993 96.5158 15.391C95.4378 14.789 94.5978 13.921 93.9958 12.787C93.4078 11.653 93.1138 10.288 93.1138 8.692C93.1138 7.124 93.4218 5.752 94.0378 4.576C94.6538 3.4 95.5008 2.483 96.5788 1.825C97.6568 1.167 98.8958 0.837999 100.296 0.837999ZM100.212 1.216C99.3858 1.216 98.6648 1.531 98.0488 2.161C97.4468 2.791 96.9778 3.659 96.6418 4.765C96.3058 5.871 96.1378 7.152 96.1378 8.608C96.1378 10.092 96.3268 11.387 96.7048 12.493C97.0828 13.585 97.5938 14.432 98.2378 15.034C98.8818 15.622 99.5888 15.916 100.359 15.916C101.185 15.916 101.899 15.601 102.501 14.971C103.117 14.341 103.593 13.473 103.929 12.367C104.265 11.247 104.433 9.966 104.433 8.524C104.433 7.026 104.244 5.731 103.866 4.639C103.488 3.547 102.977 2.707 102.333 2.119C101.703 1.517 100.996 1.216 100.212 1.216ZM123.558 1.132V1.552C123.082 1.566 122.718 1.622 122.466 1.72C122.228 1.804 122.067 1.972 121.983 2.224C121.899 2.462 121.857 2.84 121.857 3.358V13.774C121.857 14.278 121.899 14.656 121.983 14.908C122.067 15.16 122.228 15.328 122.466 15.412C122.718 15.496 123.082 15.552 123.558 15.58V16C123.222 15.972 122.767 15.958 122.193 15.958C121.619 15.944 121.017 15.937 120.387 15.937C119.757 15.937 119.134 15.944 118.518 15.958C117.916 15.958 117.419 15.972 117.027 16V15.58C117.573 15.552 117.986 15.496 118.266 15.412C118.546 15.328 118.735 15.16 118.833 14.908C118.931 14.656 118.98 14.278 118.98 13.774V3.358C118.98 2.84 118.931 2.455 118.833 2.203C118.749 1.951 118.595 1.783 118.371 1.699C118.161 1.601 117.853 1.552 117.447 1.552H117.258C116.88 1.552 116.586 1.601 116.376 1.699C116.166 1.783 116.012 1.958 115.914 2.224C115.83 2.476 115.767 2.854 115.725 3.358C115.655 4.184 115.585 5.073 115.515 6.025C115.459 6.977 115.382 7.936 115.284 8.902C115.2 9.868 115.067 10.792 114.885 11.674C114.703 12.556 114.465 13.347 114.171 14.047C113.877 14.733 113.499 15.279 113.037 15.685C112.575 16.091 112.008 16.294 111.336 16.294C110.762 16.294 110.258 16.14 109.824 15.832C109.39 15.524 109.173 15.09 109.173 14.53C109.173 14.04 109.334 13.648 109.656 13.354C109.992 13.06 110.391 12.913 110.853 12.913C111.273 12.913 111.609 13.018 111.861 13.228C112.113 13.438 112.239 13.725 112.239 14.089C112.239 14.537 112.106 14.901 111.84 15.181C111.588 15.461 111.252 15.671 110.832 15.811C110.916 15.839 111 15.86 111.084 15.874C111.182 15.888 111.266 15.895 111.336 15.895C111.98 15.895 112.519 15.65 112.953 15.16C113.387 14.67 113.737 14.005 114.003 13.165C114.283 12.311 114.5 11.345 114.654 10.267C114.808 9.189 114.927 8.062 115.011 6.886C115.095 5.696 115.172 4.52 115.242 3.358C115.284 2.868 115.263 2.497 115.179 2.245C115.109 1.993 114.941 1.818 114.675 1.72C114.423 1.622 114.045 1.566 113.541 1.552V1.132C113.835 1.146 114.185 1.16 114.591 1.174C114.997 1.188 115.368 1.195 115.704 1.195C116.026 1.195 116.334 1.188 116.628 1.174C116.936 1.146 117.244 1.132 117.552 1.132C118.084 1.132 118.567 1.146 119.001 1.174C119.435 1.188 119.953 1.195 120.555 1.195C120.891 1.195 121.241 1.195 121.605 1.195C121.983 1.181 122.347 1.174 122.697 1.174C123.047 1.16 123.334 1.146 123.558 1.132ZM132.945 1.069L138.048 14.236C138.258 14.74 138.482 15.09 138.72 15.286C138.972 15.468 139.203 15.566 139.413 15.58V16C139.049 15.972 138.608 15.958 138.09 15.958C137.586 15.944 137.068 15.937 136.536 15.937C135.92 15.937 135.346 15.944 134.814 15.958C134.282 15.958 133.848 15.972 133.512 16V15.58C134.226 15.552 134.681 15.433 134.877 15.223C135.073 14.999 135.031 14.53 134.751 13.816L131.055 3.841L131.433 3.379L128.073 12.094C127.807 12.794 127.646 13.368 127.59 13.816C127.534 14.264 127.569 14.614 127.695 14.866C127.821 15.118 128.031 15.3 128.325 15.412C128.619 15.51 128.983 15.566 129.417 15.58V16C128.969 15.972 128.535 15.958 128.115 15.958C127.695 15.944 127.275 15.937 126.855 15.937C126.547 15.937 126.253 15.944 125.973 15.958C125.707 15.958 125.469 15.972 125.259 16V15.58C125.567 15.51 125.868 15.328 126.162 15.034C126.47 14.74 126.764 14.229 127.044 13.501L131.853 1.069C132.021 1.083 132.203 1.09 132.399 1.09C132.595 1.09 132.777 1.083 132.945 1.069ZM134.772 9.952V10.372H128.514L128.724 9.952H134.772ZM6.8236 31.132V31.552C6.3756 31.566 6.0326 31.622 5.7946 31.72C5.5706 31.804 5.4166 31.972 5.3326 32.224C5.2486 32.462 5.2066 32.84 5.2066 33.358V43.774C5.2066 44.278 5.2486 44.656 5.3326 44.908C5.4166 45.16 5.5706 45.328 5.7946 45.412C6.0326 45.496 6.3756 45.552 6.8236 45.58V46C6.4736 45.972 6.0256 45.958 5.4796 45.958C4.9336 45.944 4.3806 45.937 3.8206 45.937C3.1906 45.937 2.6026 45.944 2.0566 45.958C1.5106 45.958 1.0626 45.972 0.712604 46V45.58C1.1746 45.552 1.5176 45.496 1.7416 45.412C1.9796 45.328 2.1336 45.16 2.2036 44.908C2.2876 44.656 2.3296 44.278 2.3296 43.774V33.358C2.3296 32.84 2.2876 32.462 2.2036 32.224C2.1336 31.972 1.9796 31.804 1.7416 31.72C1.5176 31.622 1.1746 31.566 0.712604 31.552V31.132C1.0626 31.146 1.5106 31.16 2.0566 31.174C2.6026 31.188 3.1906 31.195 3.8206 31.195C4.3806 31.195 4.9336 31.188 5.4796 31.174C6.0256 31.16 6.4736 31.146 6.8236 31.132ZM6.1306 38.083C7.1246 38.083 8.0066 38.16 8.7766 38.314C9.5466 38.468 10.1766 38.762 10.6666 39.196C11.1706 39.616 11.5066 40.232 11.6746 41.044L12.2836 43.795C12.4236 44.383 12.5566 44.796 12.6826 45.034C12.8226 45.272 13.0326 45.384 13.3126 45.37C13.5086 45.37 13.6766 45.321 13.8166 45.223C13.9566 45.111 14.0966 44.964 14.2366 44.782L14.5306 45.034C14.2086 45.44 13.8446 45.755 13.4386 45.979C13.0466 46.189 12.5426 46.294 11.9266 46.294C11.2546 46.294 10.6876 46.147 10.2256 45.853C9.7776 45.545 9.4626 44.936 9.2806 44.026L8.7136 41.023C8.6016 40.449 8.4546 39.973 8.2726 39.595C8.0906 39.217 7.8176 38.937 7.4536 38.755C7.0896 38.559 6.5646 38.461 5.8786 38.461H4.7236V38.083H6.1306ZM5.1646 38.461V38.083C5.7666 38.055 6.2916 37.901 6.7396 37.621C7.2016 37.341 7.6706 36.928 8.1466 36.382L9.6376 34.513C10.1416 33.897 10.4496 33.372 10.5616 32.938C10.6876 32.504 10.6246 32.168 10.3726 31.93C10.1346 31.692 9.7356 31.566 9.1756 31.552V31.132C9.4976 31.146 9.8056 31.16 10.0996 31.174C10.4076 31.174 10.7226 31.181 11.0446 31.195C11.3666 31.195 11.7026 31.195 12.0526 31.195C12.4446 31.195 12.8016 31.188 13.1236 31.174C13.4456 31.16 13.7256 31.146 13.9636 31.132V31.552C13.5156 31.636 13.0536 31.818 12.5776 32.098C12.1016 32.364 11.6116 32.791 11.1076 33.379L6.9076 38.461H5.1646ZM23.8021 30.838C25.2301 30.838 26.4831 31.139 27.5611 31.741C28.6391 32.343 29.4721 33.211 30.0601 34.345C30.6621 35.465 30.9631 36.83 30.9631 38.44C30.9631 40.008 30.6551 41.38 30.0391 42.556C29.4371 43.732 28.5901 44.649 27.4981 45.307C26.4201 45.965 25.1811 46.294 23.7811 46.294C22.3531 46.294 21.1001 45.993 20.0221 45.391C18.9441 44.789 18.1041 43.921 17.5021 42.787C16.9141 41.653 16.6201 40.288 16.6201 38.692C16.6201 37.124 16.9281 35.752 17.5441 34.576C18.1601 33.4 19.0071 32.483 20.0851 31.825C21.1631 31.167 22.4021 30.838 23.8021 30.838ZM23.7181 31.216C22.8921 31.216 22.1711 31.531 21.5551 32.161C20.9531 32.791 20.4841 33.659 20.1481 34.765C19.8121 35.871 19.6441 37.152 19.6441 38.608C19.6441 40.092 19.8331 41.387 20.2111 42.493C20.5891 43.585 21.1001 44.432 21.7441 45.034C22.3881 45.622 23.0951 45.916 23.8651 45.916C24.6911 45.916 25.4051 45.601 26.0071 44.971C26.6231 44.341 27.0991 43.473 27.4351 42.367C27.7711 41.247 27.9391 39.966 27.9391 38.524C27.9391 37.026 27.7501 35.731 27.3721 34.639C26.9941 33.547 26.4831 32.707 25.8391 32.119C25.2091 31.517 24.5021 31.216 23.7181 31.216ZM48.7622 31.132V31.552C48.3142 31.566 47.9712 31.622 47.7332 31.72C47.5092 31.804 47.3552 31.972 47.2712 32.224C47.1872 32.462 47.1452 32.84 47.1452 33.358V43.774C47.1452 44.278 47.1872 44.656 47.2712 44.908C47.3552 45.16 47.5092 45.328 47.7332 45.412C47.9712 45.496 48.3142 45.552 48.7622 45.58V46C48.4402 45.972 47.9992 45.958 47.4392 45.958C46.8792 45.944 46.2842 45.937 45.6542 45.937C45.1222 45.937 44.5762 45.944 44.0162 45.958C43.4702 45.958 43.0152 45.972 42.6512 46V45.58C43.1132 45.552 43.4562 45.496 43.6802 45.412C43.9182 45.328 44.0722 45.16 44.1422 44.908C44.2262 44.656 44.2682 44.278 44.2682 43.774V33.358C44.2682 32.84 44.2262 32.455 44.1422 32.203C44.0582 31.951 43.8902 31.783 43.6382 31.699C43.4002 31.601 43.0432 31.552 42.5672 31.552H39.9842C39.5082 31.552 39.1442 31.601 38.8922 31.699C38.6542 31.783 38.4932 31.951 38.4092 32.203C38.3252 32.455 38.2832 32.84 38.2832 33.358V43.774C38.2832 44.278 38.3252 44.656 38.4092 44.908C38.4932 45.16 38.6472 45.328 38.8712 45.412C39.1092 45.496 39.4522 45.552 39.9002 45.58V46C39.5502 45.972 39.1022 45.958 38.5562 45.958C38.0102 45.944 37.4572 45.937 36.8972 45.937C36.2672 45.937 35.6792 45.944 35.1332 45.958C34.5872 45.958 34.1392 45.972 33.7892 46V45.58C34.2512 45.552 34.5942 45.496 34.8182 45.412C35.0562 45.328 35.2102 45.16 35.2802 44.908C35.3642 44.656 35.4062 44.278 35.4062 43.774V33.358C35.4062 32.84 35.3642 32.462 35.2802 32.224C35.2102 31.972 35.0562 31.804 34.8182 31.72C34.5942 31.622 34.2512 31.566 33.7892 31.552V31.132C34.1392 31.146 34.5872 31.16 35.1332 31.174C35.6792 31.188 36.2672 31.195 36.8972 31.195C37.7232 31.195 38.5422 31.188 39.3542 31.174C40.1662 31.146 40.8172 31.132 41.3072 31.132C41.7972 31.132 42.4412 31.146 43.2392 31.174C44.0372 31.188 44.8422 31.195 45.6542 31.195C46.2842 31.195 46.8792 31.188 47.4392 31.174C47.9992 31.16 48.4402 31.146 48.7622 31.132ZM57.669 31.132V31.552C57.221 31.566 56.878 31.622 56.64 31.72C56.416 31.804 56.262 31.972 56.178 32.224C56.094 32.462 56.052 32.84 56.052 33.358V43.774C56.052 44.278 56.094 44.656 56.178 44.908C56.262 45.16 56.416 45.328 56.64 45.412C56.878 45.496 57.221 45.552 57.669 45.58V46C57.319 45.972 56.871 45.958 56.325 45.958C55.779 45.944 55.226 45.937 54.666 45.937C54.036 45.937 53.448 45.944 52.902 45.958C52.356 45.958 51.908 45.972 51.558 46V45.58C52.02 45.552 52.363 45.496 52.587 45.412C52.825 45.328 52.979 45.16 53.049 44.908C53.133 44.656 53.175 44.278 53.175 43.774V33.358C53.175 32.84 53.133 32.462 53.049 32.224C52.979 31.972 52.825 31.804 52.587 31.72C52.363 31.622 52.02 31.566 51.558 31.552V31.132C51.908 31.146 52.356 31.16 52.902 31.174C53.448 31.188 54.036 31.195 54.666 31.195C55.226 31.195 55.779 31.188 56.325 31.174C56.871 31.16 57.319 31.146 57.669 31.132ZM62.877 32.371C62.877 32.371 62.87 32.448 62.856 32.602C62.856 32.742 62.856 32.889 62.856 33.043C62.856 33.197 62.856 33.274 62.856 33.274L55.38 45.16L55.296 44.446L62.877 32.371ZM66.951 31.132V31.552C66.503 31.566 66.16 31.622 65.922 31.72C65.698 31.804 65.544 31.972 65.46 32.224C65.376 32.462 65.334 32.84 65.334 33.358V43.774C65.334 44.278 65.376 44.656 65.46 44.908C65.544 45.16 65.698 45.328 65.922 45.412C66.16 45.496 66.503 45.552 66.951 45.58V46C66.629 45.972 66.188 45.958 65.628 45.958C65.068 45.944 64.473 45.937 63.843 45.937C63.311 45.937 62.765 45.944 62.205 45.958C61.659 45.958 61.204 45.972 60.84 46V45.58C61.302 45.552 61.645 45.496 61.869 45.412C62.107 45.328 62.261 45.16 62.331 44.908C62.415 44.656 62.457 44.278 62.457 43.774V33.358C62.457 32.84 62.415 32.462 62.331 32.224C62.261 31.972 62.107 31.804 61.869 31.72C61.645 31.622 61.302 31.566 60.84 31.552V31.132C61.204 31.146 61.659 31.16 62.205 31.174C62.765 31.188 63.311 31.195 63.843 31.195C64.473 31.195 65.068 31.188 65.628 31.174C66.188 31.16 66.629 31.146 66.951 31.132ZM69.737 31.132C70.087 31.146 70.535 31.16 71.081 31.174C71.627 31.188 72.173 31.195 72.719 31.195C73.405 31.195 74.056 31.188 74.672 31.174C75.288 31.16 75.722 31.153 75.974 31.153C77.85 31.153 79.243 31.538 80.153 32.308C81.077 33.078 81.539 34.072 81.539 35.29C81.539 35.794 81.448 36.326 81.266 36.886C81.084 37.432 80.769 37.943 80.321 38.419C79.873 38.881 79.257 39.259 78.473 39.553C77.703 39.847 76.716 39.994 75.512 39.994H73.412V39.574H75.302C76.184 39.574 76.856 39.385 77.318 39.007C77.794 38.629 78.109 38.132 78.263 37.516C78.431 36.9 78.515 36.235 78.515 35.521C78.515 34.191 78.298 33.197 77.864 32.539C77.43 31.881 76.681 31.552 75.617 31.552C75.043 31.552 74.665 31.671 74.483 31.909C74.315 32.147 74.231 32.63 74.231 33.358V43.69C74.231 44.222 74.287 44.621 74.399 44.887C74.511 45.153 74.728 45.328 75.05 45.412C75.372 45.496 75.834 45.545 76.436 45.559V46C76.03 45.972 75.505 45.958 74.861 45.958C74.217 45.944 73.552 45.937 72.866 45.937C72.278 45.937 71.711 45.944 71.165 45.958C70.619 45.958 70.143 45.972 69.737 46V45.58C70.199 45.552 70.542 45.496 70.766 45.412C71.004 45.328 71.158 45.16 71.228 44.908C71.312 44.656 71.354 44.278 71.354 43.774V33.358C71.354 32.84 71.312 32.462 71.228 32.224C71.158 31.972 71.004 31.804 70.766 31.72C70.542 31.622 70.199 31.566 69.737 31.552V31.132ZM89.6305 31.069L94.7335 44.236C94.9435 44.74 95.1675 45.09 95.4055 45.286C95.6575 45.468 95.8885 45.566 96.0985 45.58V46C95.7345 45.972 95.2935 45.958 94.7755 45.958C94.2715 45.944 93.7535 45.937 93.2215 45.937C92.6055 45.937 92.0315 45.944 91.4995 45.958C90.9675 45.958 90.5335 45.972 90.1975 46V45.58C90.9115 45.552 91.3665 45.433 91.5625 45.223C91.7585 44.999 91.7165 44.53 91.4365 43.816L87.7405 33.841L88.1185 33.379L84.7585 42.094C84.4925 42.794 84.3315 43.368 84.2755 43.816C84.2195 44.264 84.2545 44.614 84.3805 44.866C84.5065 45.118 84.7165 45.3 85.0105 45.412C85.3045 45.51 85.6685 45.566 86.1025 45.58V46C85.6545 45.972 85.2205 45.958 84.8005 45.958C84.3805 45.944 83.9605 45.937 83.5405 45.937C83.2325 45.937 82.9385 45.944 82.6585 45.958C82.3925 45.958 82.1545 45.972 81.9445 46V45.58C82.2525 45.51 82.5535 45.328 82.8475 45.034C83.1555 44.74 83.4495 44.229 83.7295 43.501L88.5385 31.069C88.7065 31.083 88.8885 31.09 89.0845 31.09C89.2805 31.09 89.4625 31.083 89.6305 31.069ZM91.4575 39.952V40.372H85.1995L85.4095 39.952H91.4575ZM104.105 31.132V31.552C103.657 31.566 103.314 31.622 103.076 31.72C102.852 31.804 102.698 31.972 102.614 32.224C102.53 32.462 102.488 32.84 102.488 33.358V43.774C102.488 44.278 102.53 44.656 102.614 44.908C102.698 45.16 102.852 45.328 103.076 45.412C103.314 45.496 103.657 45.552 104.105 45.58V46C103.755 45.972 103.307 45.958 102.761 45.958C102.215 45.944 101.662 45.937 101.102 45.937C100.472 45.937 99.8843 45.944 99.3383 45.958C98.7923 45.958 98.3443 45.972 97.9943 46V45.58C98.4563 45.552 98.7993 45.496 99.0233 45.412C99.2613 45.328 99.4153 45.16 99.4853 44.908C99.5693 44.656 99.6113 44.278 99.6113 43.774V33.358C99.6113 32.84 99.5693 32.462 99.4853 32.224C99.4153 31.972 99.2613 31.804 99.0233 31.72C98.7993 31.622 98.4563 31.566 97.9943 31.552V31.132C98.3443 31.146 98.7923 31.16 99.3383 31.174C99.8843 31.188 100.472 31.195 101.102 31.195C101.662 31.195 102.215 31.188 102.761 31.174C103.307 31.16 103.755 31.146 104.105 31.132ZM109.313 32.371C109.313 32.371 109.306 32.448 109.292 32.602C109.292 32.742 109.292 32.889 109.292 33.043C109.292 33.197 109.292 33.274 109.292 33.274L101.816 45.16L101.732 44.446L109.313 32.371ZM113.387 31.132V31.552C112.939 31.566 112.596 31.622 112.358 31.72C112.134 31.804 111.98 31.972 111.896 32.224C111.812 32.462 111.77 32.84 111.77 33.358V43.774C111.77 44.278 111.812 44.656 111.896 44.908C111.98 45.16 112.134 45.328 112.358 45.412C112.596 45.496 112.939 45.552 113.387 45.58V46C113.065 45.972 112.624 45.958 112.064 45.958C111.504 45.944 110.909 45.937 110.279 45.937C109.747 45.937 109.201 45.944 108.641 45.958C108.095 45.958 107.64 45.972 107.276 46V45.58C107.738 45.552 108.081 45.496 108.305 45.412C108.543 45.328 108.697 45.16 108.767 44.908C108.851 44.656 108.893 44.278 108.893 43.774V33.358C108.893 32.84 108.851 32.462 108.767 32.224C108.697 31.972 108.543 31.804 108.305 31.72C108.081 31.622 107.738 31.566 107.276 31.552V31.132C107.64 31.146 108.095 31.16 108.641 31.174C109.201 31.188 109.747 31.195 110.279 31.195C110.909 31.195 111.504 31.188 112.064 31.174C112.624 31.16 113.065 31.146 113.387 31.132ZM108.956 26.155C109.39 26.155 109.747 26.281 110.027 26.533C110.307 26.771 110.447 27.086 110.447 27.478C110.447 27.8 110.342 28.087 110.132 28.339C109.936 28.577 109.649 28.794 109.271 28.99C108.879 29.2 108.382 29.382 107.78 29.536C107.192 29.676 106.506 29.746 105.722 29.746C104.924 29.746 104.224 29.676 103.622 29.536C103.034 29.382 102.544 29.2 102.152 28.99C101.788 28.794 101.501 28.577 101.291 28.339C101.095 28.087 100.997 27.8 100.997 27.478C100.997 27.086 101.13 26.771 101.396 26.533C101.676 26.281 102.033 26.155 102.467 26.155C102.901 26.155 103.258 26.274 103.538 26.512C103.832 26.75 103.979 27.072 103.979 27.478C103.979 27.828 103.867 28.108 103.643 28.318C103.433 28.528 103.167 28.668 102.845 28.738C103.097 28.892 103.391 29.011 103.727 29.095C104.063 29.179 104.406 29.242 104.756 29.284C105.106 29.312 105.428 29.326 105.722 29.326C106.002 29.326 106.317 29.312 106.667 29.284C107.031 29.242 107.381 29.179 107.717 29.095C108.053 28.997 108.347 28.878 108.599 28.738C108.249 28.654 107.969 28.507 107.759 28.297C107.563 28.087 107.465 27.814 107.465 27.478C107.465 27.086 107.605 26.771 107.885 26.533C108.179 26.281 108.536 26.155 108.956 26.155ZM128.563 31.132C128.507 31.776 128.465 32.406 128.437 33.022C128.423 33.624 128.416 34.086 128.416 34.408C128.416 34.73 128.423 35.031 128.437 35.311C128.451 35.591 128.465 35.836 128.479 36.046H127.996C127.8 34.926 127.562 34.051 127.282 33.421C127.002 32.777 126.631 32.315 126.169 32.035C125.721 31.755 125.126 31.615 124.384 31.615H123.712V43.585C123.712 44.159 123.761 44.586 123.859 44.866C123.971 45.146 124.188 45.335 124.51 45.433C124.832 45.517 125.301 45.566 125.917 45.58V46C125.497 45.972 124.951 45.958 124.279 45.958C123.607 45.944 122.921 45.937 122.221 45.937C121.493 45.937 120.807 45.944 120.163 45.958C119.533 45.958 119.022 45.972 118.63 46V45.58C119.232 45.566 119.694 45.517 120.016 45.433C120.338 45.335 120.555 45.146 120.667 44.866C120.779 44.586 120.835 44.159 120.835 43.585V31.615H120.142C119.414 31.615 118.819 31.755 118.357 32.035C117.895 32.315 117.524 32.777 117.244 33.421C116.964 34.051 116.733 34.926 116.551 36.046H116.068C116.096 35.836 116.11 35.591 116.11 35.311C116.124 35.031 116.131 34.73 116.131 34.408C116.131 34.086 116.117 33.624 116.089 33.022C116.075 32.406 116.04 31.776 115.984 31.132C116.6 31.146 117.279 31.16 118.021 31.174C118.763 31.188 119.505 31.195 120.247 31.195C120.989 31.195 121.668 31.195 122.284 31.195C122.886 31.195 123.558 31.195 124.3 31.195C125.042 31.195 125.784 31.188 126.526 31.174C127.268 31.16 127.947 31.146 128.563 31.132ZM137.243 31.132V31.552C136.795 31.566 136.452 31.622 136.214 31.72C135.99 31.804 135.836 31.972 135.752 32.224C135.668 32.462 135.626 32.84 135.626 33.358V43.774C135.626 44.278 135.668 44.656 135.752 44.908C135.836 45.16 135.99 45.328 136.214 45.412C136.452 45.496 136.795 45.552 137.243 45.58V46C136.893 45.972 136.445 45.958 135.899 45.958C135.353 45.944 134.8 45.937 134.24 45.937C133.61 45.937 133.022 45.944 132.476 45.958C131.93 45.958 131.482 45.972 131.132 46V45.58C131.594 45.552 131.937 45.496 132.161 45.412C132.399 45.328 132.553 45.16 132.623 44.908C132.707 44.656 132.749 44.278 132.749 43.774V33.358C132.749 32.84 132.707 32.462 132.623 32.224C132.553 31.972 132.399 31.804 132.161 31.72C131.937 31.622 131.594 31.566 131.132 31.552V31.132C131.482 31.146 131.93 31.16 132.476 31.174C133.022 31.188 133.61 31.195 134.24 31.195C134.8 31.195 135.353 31.188 135.899 31.174C136.445 31.16 136.893 31.146 137.243 31.132ZM142.451 32.371C142.451 32.371 142.444 32.448 142.43 32.602C142.43 32.742 142.43 32.889 142.43 33.043C142.43 33.197 142.43 33.274 142.43 33.274L134.954 45.16L134.87 44.446L142.451 32.371ZM146.525 31.132V31.552C146.077 31.566 145.734 31.622 145.496 31.72C145.272 31.804 145.118 31.972 145.034 32.224C144.95 32.462 144.908 32.84 144.908 33.358V43.774C144.908 44.278 144.95 44.656 145.034 44.908C145.118 45.16 145.272 45.328 145.496 45.412C145.734 45.496 146.077 45.552 146.525 45.58V46C146.203 45.972 145.762 45.958 145.202 45.958C144.642 45.944 144.047 45.937 143.417 45.937C142.885 45.937 142.339 45.944 141.779 45.958C141.233 45.958 140.778 45.972 140.414 46V45.58C140.876 45.552 141.219 45.496 141.443 45.412C141.681 45.328 141.835 45.16 141.905 44.908C141.989 44.656 142.031 44.278 142.031 43.774V33.358C142.031 32.84 141.989 32.462 141.905 32.224C141.835 31.972 141.681 31.804 141.443 31.72C141.219 31.622 140.876 31.566 140.414 31.552V31.132C140.778 31.146 141.233 31.16 141.779 31.174C142.339 31.188 142.885 31.195 143.417 31.195C144.047 31.195 144.642 31.188 145.202 31.174C145.762 31.16 146.203 31.146 146.525 31.132ZM158.173 46V45.58C158.635 45.552 158.978 45.496 159.202 45.412C159.44 45.328 159.594 45.16 159.664 44.908C159.748 44.656 159.79 44.278 159.79 43.774V33.358C159.79 32.84 159.748 32.462 159.664 32.224C159.594 31.972 159.44 31.804 159.202 31.72C158.978 31.622 158.635 31.566 158.173 31.552V31.132C158.551 31.146 159.02 31.16 159.58 31.174C160.14 31.188 160.7 31.195 161.26 31.195C161.876 31.195 162.45 31.188 162.982 31.174C163.528 31.16 163.962 31.146 164.284 31.132V31.552C163.836 31.566 163.493 31.622 163.255 31.72C163.031 31.804 162.877 31.972 162.793 32.224C162.709 32.462 162.667 32.84 162.667 33.358V43.774C162.667 44.278 162.709 44.656 162.793 44.908C162.877 45.16 163.031 45.328 163.255 45.412C163.493 45.496 163.836 45.552 164.284 45.58V46C163.962 45.972 163.528 45.958 162.982 45.958C162.45 45.944 161.876 45.937 161.26 45.937C160.7 45.937 160.14 45.944 159.58 45.958C159.02 45.958 158.551 45.972 158.173 46ZM149.311 46V45.58C149.773 45.552 150.116 45.496 150.34 45.412C150.578 45.328 150.732 45.16 150.802 44.908C150.886 44.656 150.928 44.278 150.928 43.774V33.358C150.928 32.84 150.886 32.462 150.802 32.224C150.732 31.972 150.578 31.804 150.34 31.72C150.116 31.622 149.773 31.566 149.311 31.552V31.132C149.661 31.146 150.109 31.16 150.655 31.174C151.201 31.188 151.789 31.195 152.419 31.195C152.979 31.195 153.532 31.188 154.078 31.174C154.624 31.16 155.072 31.146 155.422 31.132V31.552C154.974 31.566 154.631 31.622 154.393 31.72C154.169 31.804 154.015 31.972 153.931 32.224C153.847 32.462 153.805 32.84 153.805 33.358V43.774C153.805 44.278 153.847 44.656 153.931 44.908C154.015 45.16 154.169 45.328 154.393 45.412C154.631 45.496 154.974 45.552 155.422 45.58V46C155.072 45.972 154.624 45.958 154.078 45.958C153.532 45.944 152.979 45.937 152.419 45.937C151.789 45.937 151.201 45.944 150.655 45.958C150.109 45.958 149.661 45.972 149.311 46ZM152.65 38.734V38.314H160.945V38.734H152.65ZM177.559 31.132C177.503 31.734 177.461 32.315 177.433 32.875C177.419 33.435 177.412 33.862 177.412 34.156C177.412 34.478 177.419 34.779 177.433 35.059C177.447 35.339 177.461 35.584 177.475 35.794H176.992C176.838 34.744 176.628 33.918 176.362 33.316C176.096 32.7 175.739 32.266 175.291 32.014C174.843 31.748 174.248 31.615 173.506 31.615H173.107C172.687 31.615 172.365 31.65 172.141 31.72C171.917 31.79 171.763 31.937 171.679 32.161C171.609 32.385 171.574 32.728 171.574 33.19V43.774C171.574 44.278 171.623 44.656 171.721 44.908C171.819 45.16 172.008 45.328 172.288 45.412C172.582 45.496 172.995 45.552 173.527 45.58V46C173.135 45.972 172.638 45.958 172.036 45.958C171.434 45.944 170.818 45.937 170.188 45.937C169.558 45.937 168.97 45.944 168.424 45.958C167.878 45.958 167.43 45.972 167.08 46V45.58C167.542 45.552 167.885 45.496 168.109 45.412C168.347 45.328 168.501 45.16 168.571 44.908C168.655 44.656 168.697 44.278 168.697 43.774V33.358C168.697 32.84 168.655 32.462 168.571 32.224C168.501 31.972 168.347 31.804 168.109 31.72C167.885 31.622 167.542 31.566 167.08 31.552V31.132C167.64 31.146 168.228 31.16 168.844 31.174C169.474 31.174 170.09 31.181 170.692 31.195C171.308 31.195 171.875 31.195 172.393 31.195C172.925 31.195 173.352 31.195 173.674 31.195C174.248 31.195 174.899 31.195 175.627 31.195C176.355 31.181 176.999 31.16 177.559 31.132ZM185.436 31.069L190.539 44.236C190.749 44.74 190.973 45.09 191.211 45.286C191.463 45.468 191.694 45.566 191.904 45.58V46C191.54 45.972 191.099 45.958 190.581 45.958C190.077 45.944 189.559 45.937 189.027 45.937C188.411 45.937 187.837 45.944 187.305 45.958C186.773 45.958 186.339 45.972 186.003 46V45.58C186.717 45.552 187.172 45.433 187.368 45.223C187.564 44.999 187.522 44.53 187.242 43.816L183.546 33.841L183.924 33.379L180.564 42.094C180.298 42.794 180.137 43.368 180.081 43.816C180.025 44.264 180.06 44.614 180.186 44.866C180.312 45.118 180.522 45.3 180.816 45.412C181.11 45.51 181.474 45.566 181.908 45.58V46C181.46 45.972 181.026 45.958 180.606 45.958C180.186 45.944 179.766 45.937 179.346 45.937C179.038 45.937 178.744 45.944 178.464 45.958C178.198 45.958 177.96 45.972 177.75 46V45.58C178.058 45.51 178.359 45.328 178.653 45.034C178.961 44.74 179.255 44.229 179.535 43.501L184.344 31.069C184.512 31.083 184.694 31.09 184.89 31.09C185.086 31.09 185.268 31.083 185.436 31.069ZM187.263 39.952V40.372H181.005L181.215 39.952H187.263Z" fill="#31373C"/>
</svg>
